<mxfile host="Electron" modified="2023-06-16T22:50:07.206Z" agent="Mozilla/5.0 (Windows NT 10.0; Win64; x64) AppleWebKit/537.36 (KHTML, like Gecko) draw.io/21.4.0 Chrome/112.0.5615.204 Electron/24.5.1 Safari/537.36" etag="f3fy1nV_bmAlcy6LA9By" version="21.4.0" type="device">
  <diagram name="Page-1" id="BVt_sR9ZMbuqNtZMLNMW">
    <mxGraphModel dx="2555" dy="1003" grid="1" gridSize="10" guides="1" tooltips="1" connect="1" arrows="1" fold="1" page="1" pageScale="1" pageWidth="827" pageHeight="1169" math="0" shadow="0">
      <root>
        <mxCell id="0" />
        <mxCell id="1" parent="0" />
        <mxCell id="ooAxsioD8pYb3MYLCtBD-8" style="edgeStyle=orthogonalEdgeStyle;rounded=0;orthogonalLoop=1;jettySize=auto;html=1;exitX=0.25;exitY=1;exitDx=0;exitDy=0;entryX=0.5;entryY=0;entryDx=0;entryDy=0;fontFamily=UGent Panno Text;fontSize=28;fontColor=default;" edge="1" parent="1" source="ooAxsioD8pYb3MYLCtBD-1" target="ooAxsioD8pYb3MYLCtBD-6">
          <mxGeometry relative="1" as="geometry" />
        </mxCell>
        <mxCell id="ooAxsioD8pYb3MYLCtBD-9" style="edgeStyle=orthogonalEdgeStyle;rounded=0;orthogonalLoop=1;jettySize=auto;html=1;exitX=0.75;exitY=1;exitDx=0;exitDy=0;entryX=0.5;entryY=0;entryDx=0;entryDy=0;fontFamily=UGent Panno Text;fontSize=28;fontColor=default;" edge="1" parent="1" source="ooAxsioD8pYb3MYLCtBD-1" target="ooAxsioD8pYb3MYLCtBD-5">
          <mxGeometry relative="1" as="geometry" />
        </mxCell>
        <mxCell id="ooAxsioD8pYb3MYLCtBD-10" style="edgeStyle=orthogonalEdgeStyle;rounded=0;orthogonalLoop=1;jettySize=auto;html=1;exitX=1;exitY=0.5;exitDx=0;exitDy=0;entryX=0.5;entryY=0;entryDx=0;entryDy=0;fontFamily=UGent Panno Text;fontSize=28;fontColor=default;" edge="1" parent="1" source="ooAxsioD8pYb3MYLCtBD-1" target="ooAxsioD8pYb3MYLCtBD-7">
          <mxGeometry relative="1" as="geometry" />
        </mxCell>
        <mxCell id="ooAxsioD8pYb3MYLCtBD-11" style="edgeStyle=orthogonalEdgeStyle;rounded=0;orthogonalLoop=1;jettySize=auto;html=1;exitX=0;exitY=0.5;exitDx=0;exitDy=0;entryX=0.5;entryY=0;entryDx=0;entryDy=0;fontFamily=UGent Panno Text;fontSize=28;fontColor=default;" edge="1" parent="1" source="ooAxsioD8pYb3MYLCtBD-1" target="ooAxsioD8pYb3MYLCtBD-4">
          <mxGeometry relative="1" as="geometry" />
        </mxCell>
        <mxCell id="ooAxsioD8pYb3MYLCtBD-1" value="splitter" style="rounded=0;whiteSpace=wrap;html=1;fontFamily=UGent Panno Text;fontSize=28;fillColor=#d5e8d4;strokeColor=#82b366;" vertex="1" parent="1">
          <mxGeometry x="240" y="80" width="160" height="40" as="geometry" />
        </mxCell>
        <mxCell id="ooAxsioD8pYb3MYLCtBD-2" value="input" style="rounded=0;whiteSpace=wrap;html=1;fontFamily=UGent Panno Text;fontSize=28;fillColor=#d5e8d4;strokeColor=#82b366;" vertex="1" parent="1">
          <mxGeometry x="240" y="40" width="160" height="40" as="geometry" />
        </mxCell>
        <mxCell id="ooAxsioD8pYb3MYLCtBD-16" style="edgeStyle=orthogonalEdgeStyle;rounded=0;orthogonalLoop=1;jettySize=auto;html=1;exitX=0.5;exitY=1;exitDx=0;exitDy=0;entryX=0;entryY=0.5;entryDx=0;entryDy=0;fontFamily=UGent Panno Text;fontSize=28;fontColor=default;" edge="1" parent="1" source="ooAxsioD8pYb3MYLCtBD-4" target="ooAxsioD8pYb3MYLCtBD-15">
          <mxGeometry relative="1" as="geometry" />
        </mxCell>
        <mxCell id="ooAxsioD8pYb3MYLCtBD-4" value="modulator" style="rounded=0;whiteSpace=wrap;html=1;fontFamily=UGent Panno Text;fontSize=28;fillColor=#d5e8d4;strokeColor=#82b366;" vertex="1" parent="1">
          <mxGeometry x="-30" y="160" width="160" height="40" as="geometry" />
        </mxCell>
        <mxCell id="ooAxsioD8pYb3MYLCtBD-5" value="modulator" style="rounded=0;whiteSpace=wrap;html=1;fontFamily=UGent Panno Text;fontSize=28;fillColor=#d5e8d4;strokeColor=#82b366;" vertex="1" parent="1">
          <mxGeometry x="330" y="160" width="160" height="40" as="geometry" />
        </mxCell>
        <mxCell id="ooAxsioD8pYb3MYLCtBD-6" value="modulator" style="rounded=0;whiteSpace=wrap;html=1;fontFamily=UGent Panno Text;fontSize=28;fillColor=#d5e8d4;strokeColor=#82b366;" vertex="1" parent="1">
          <mxGeometry x="150" y="160" width="160" height="40" as="geometry" />
        </mxCell>
        <mxCell id="ooAxsioD8pYb3MYLCtBD-7" value="modulator" style="rounded=0;whiteSpace=wrap;html=1;fontFamily=UGent Panno Text;fontSize=28;fillColor=#d5e8d4;strokeColor=#82b366;" vertex="1" parent="1">
          <mxGeometry x="510" y="160" width="160" height="40" as="geometry" />
        </mxCell>
        <mxCell id="ooAxsioD8pYb3MYLCtBD-17" style="edgeStyle=orthogonalEdgeStyle;rounded=0;orthogonalLoop=1;jettySize=auto;html=1;exitX=0.5;exitY=1;exitDx=0;exitDy=0;entryX=0.25;entryY=0;entryDx=0;entryDy=0;fontFamily=UGent Panno Text;fontSize=28;fontColor=default;" edge="1" parent="1" source="ooAxsioD8pYb3MYLCtBD-12" target="ooAxsioD8pYb3MYLCtBD-15">
          <mxGeometry relative="1" as="geometry" />
        </mxCell>
        <mxCell id="ooAxsioD8pYb3MYLCtBD-12" value="phase shifter" style="rounded=0;whiteSpace=wrap;html=1;fontFamily=UGent Panno Text;fontSize=28;fillColor=#d5e8d4;strokeColor=#82b366;" vertex="1" parent="1">
          <mxGeometry x="150" y="200" width="160" height="40" as="geometry" />
        </mxCell>
        <mxCell id="ooAxsioD8pYb3MYLCtBD-18" style="edgeStyle=orthogonalEdgeStyle;rounded=0;orthogonalLoop=1;jettySize=auto;html=1;exitX=0.5;exitY=1;exitDx=0;exitDy=0;entryX=0.75;entryY=0;entryDx=0;entryDy=0;fontFamily=UGent Panno Text;fontSize=28;fontColor=default;" edge="1" parent="1" source="ooAxsioD8pYb3MYLCtBD-13" target="ooAxsioD8pYb3MYLCtBD-15">
          <mxGeometry relative="1" as="geometry" />
        </mxCell>
        <mxCell id="ooAxsioD8pYb3MYLCtBD-13" value="phase shifter" style="rounded=0;whiteSpace=wrap;html=1;fontFamily=UGent Panno Text;fontSize=28;fillColor=#d5e8d4;strokeColor=#82b366;" vertex="1" parent="1">
          <mxGeometry x="330" y="200" width="160" height="40" as="geometry" />
        </mxCell>
        <mxCell id="ooAxsioD8pYb3MYLCtBD-19" style="edgeStyle=orthogonalEdgeStyle;rounded=0;orthogonalLoop=1;jettySize=auto;html=1;exitX=0.5;exitY=1;exitDx=0;exitDy=0;entryX=1;entryY=0.5;entryDx=0;entryDy=0;fontFamily=UGent Panno Text;fontSize=28;fontColor=default;" edge="1" parent="1" source="ooAxsioD8pYb3MYLCtBD-14" target="ooAxsioD8pYb3MYLCtBD-15">
          <mxGeometry relative="1" as="geometry" />
        </mxCell>
        <mxCell id="ooAxsioD8pYb3MYLCtBD-14" value="phase shifter" style="rounded=0;whiteSpace=wrap;html=1;fontFamily=UGent Panno Text;fontSize=28;fillColor=#d5e8d4;strokeColor=#82b366;" vertex="1" parent="1">
          <mxGeometry x="510" y="200" width="160" height="40" as="geometry" />
        </mxCell>
        <mxCell id="ooAxsioD8pYb3MYLCtBD-15" value="merger" style="rounded=0;whiteSpace=wrap;html=1;fontFamily=UGent Panno Text;fontSize=28;fillColor=#d5e8d4;strokeColor=#82b366;" vertex="1" parent="1">
          <mxGeometry x="240" y="280" width="160" height="40" as="geometry" />
        </mxCell>
        <mxCell id="ooAxsioD8pYb3MYLCtBD-20" value="output" style="rounded=0;whiteSpace=wrap;html=1;fontFamily=UGent Panno Text;fontSize=28;fillColor=#d5e8d4;strokeColor=#82b366;" vertex="1" parent="1">
          <mxGeometry x="240" y="320" width="160" height="40" as="geometry" />
        </mxCell>
      </root>
    </mxGraphModel>
  </diagram>
</mxfile>
